<mxfile host="app.diagrams.net" modified="2023-06-06T03:03:45.570Z" agent="Mozilla/5.0 (Macintosh; Intel Mac OS X 10_15_7) AppleWebKit/605.1.15 (KHTML, like Gecko) Version/16.5 Safari/605.1.15" version="21.3.7" etag="ek-gXoGxyAg6MEmpoLaV" type="github">
  <diagram name="第 1 页" id="__e1b09d7FILDbNPnCbo">
    <mxGraphModel>
      <root>
        <mxCell id="0" />
        <mxCell id="1" parent="0" />
      </root>
    </mxGraphModel>
  </diagram>
</mxfile>
